<?xml version="1.0" standalone="no"?>
<!DOCTYPE svg PUBLIC "-//W3C//DTD SVG 20010904//EN"
 "http://www.w3.org/TR/2001/REC-SVG-20010904/DTD/svg10.dtd">
<svg version="1.0" xmlns="http://www.w3.org/2000/svg"
 width="512.000000pt" height="512.000000pt" viewBox="0 0 512.000000 512.000000"
 preserveAspectRatio="xMidYMid meet">
<metadata>
Created by potrace 1.11, written by Peter Selinger 2001-2013
</metadata>
<g transform="translate(0.000000,512.000000) scale(0.100000,-0.100000)"
fill="#000000" stroke="none">
<path d="M1867 4388 c-233 -398 -297 -512 -295 -520 5 -15 580 -270 588 -261
28 31 360 569 360 582 0 27 -27 58 -94 106 -136 97 -351 185 -450 185 l-55 0
-54 -92z"/>
<path d="M2628 4173 c-24 -28 -370 -585 -375 -602 -3 -12 45 -41 184 -111 227
-115 229 -117 226 -255 -1 -54 -10 -122 -22 -169 -18 -69 -21 -100 -7 -85 7 8
586 809 601 833 15 22 15 27 1 54 -45 87 -326 275 -493 331 -76 26 -96 26
-115 4z"/>
<path d="M1385 3806 c-16 -7 -39 -24 -51 -37 -35 -40 -673 -986 -684 -1014
-14 -36 -13 -121 2 -148 8 -16 1011 -1391 1060 -1454 6 -7 -23 -217 -77 -560
-47 -301 -88 -558 -90 -570 l-5 -23 935 0 935 0 0 474 0 473 275 529 c151 291
282 549 290 574 8 25 19 79 25 120 12 96 13 280 1 280 -5 0 -11 -3 -13 -7 -1
-5 -139 -142 -304 -306 l-301 -298 -164 82 c-90 45 -210 103 -265 129 l-102
48 -71 -367 c-40 -201 -75 -375 -78 -386 -4 -12 -17 24 -39 102 -107 394 -303
726 -562 956 -105 93 -275 205 -405 267 l-108 52 24 41 c13 23 41 74 62 112
21 39 46 84 57 102 l19 31 66 -30 c205 -92 414 -95 570 -7 72 41 157 136 182
204 26 68 26 97 4 123 -19 21 -1079 506 -1128 516 -17 3 -43 -1 -60 -8z m1198
-2890 c89 -19 219 -21 318 -5 39 6 72 9 75 7 2 -3 -53 -44 -123 -92 l-128 -87
-61 -342 -61 -342 -6 95 c-4 52 -12 210 -18 350 l-10 255 -127 122 -127 122
96 -34 c52 -18 130 -41 172 -49z"/>
<path d="M3277 3658 c-91 -114 -680 -883 -684 -894 -8 -21 30 -74 99 -140 134
-128 299 -243 325 -226 5 4 186 193 401 421 272 286 392 420 392 435 0 93
-330 398 -477 440 -17 5 -28 -2 -56 -36z"/>
<path d="M3447 2725 c-213 -223 -367 -392 -367 -403 0 -69 252 -309 303 -289
7 3 184 152 395 332 436 373 413 341 345 453 -82 134 -238 292 -288 292 -14 0
-140 -125 -388 -385z"/>
</g>
</svg>
